Coordinates
version=1
nRows=13
nColumns=36
inDegrees=yes

Units are S.I. units (second, meters, Newtons, ...)
If the header above contains a line with 'inDegrees', this indicates whether rotational values are in degrees (yes) or radians (no).

endheader
time	pelvis_tilt	pelvis_list	pelvis_rotation	pelvis_tx	pelvis_ty	pelvis_tz	hip_flexion_r	hip_adduction_r	hip_rotation_r	knee_angle_r	knee_angle_r_beta	ankle_angle_r	subtalar_angle_r	mtp_angle_r	hip_flexion_l	hip_adduction_l	hip_rotation_l	knee_angle_l	knee_angle_l_beta	ankle_angle_l	subtalar_angle_l	mtp_angle_l	lumbar_extension	lumbar_bending	lumbar_rotation	arm_flex_r	arm_add_r	arm_rot_r	elbow_flex_r	pro_sup_r	arm_flex_l	arm_add_l	arm_rot_l	elbow_flex_l	pro_sup_l
      4.35000000	    -16.09708735	     -7.16664204	      5.03138644	      0.73912886	      0.71756034	      0.41290552	     55.27043473	     12.80209199	     -8.86074923	     72.37420468	      1.26316817	     40.44057794	     -2.83801042	     -7.49999987	     83.04659140	    -11.99259310	     16.12256112	     40.33387135	      0.70395886	      4.78585158	    -19.10988969	     -7.49999987	      2.58919829	     10.15476245	      0.93477665	     38.44232399	     -2.07978966	     58.66479920	    128.37717556	     99.11923958	     37.69415329	      6.24410624	     67.64417597	    123.62837827	    106.54946019
      4.36666670	    -16.07642371	     -7.13991788	      4.85156897	      0.73903586	      0.72289086	      0.41275183	     55.05096088	     12.88156243	     -8.66738296	     72.00269579	      1.25668411	     40.17594278	     -2.63829009	     -7.49999987	     82.87296268	    -12.17744076	     16.25358602	     40.02047486	      0.69848905	      4.36672652	    -19.31642189	     -7.49999987	      2.49348693	     10.20157609	      1.02099382	     38.66432867	     -2.01260087	     58.84395592	    128.26821371	     99.11940518	     38.24788903	      5.71020367	     67.59789454	    123.28072133	    106.53826493
      4.38333330	    -15.95704547	     -7.08200283	      4.74302176	      0.74474881	      0.72464212	      0.41560147	     54.28093706	     13.14836423	     -8.35625554	     71.14148004	      1.24165306	     40.01241904	     -2.46534874	     -7.49999987	     82.45989504	    -12.42258708	     16.31971410	     39.61855244	      0.69147418	      4.06352113	    -19.54005106	     -7.49999987	      2.65439163	     10.03145270	      1.05450984	     38.10053633	     -1.88947904	     59.37521347	    128.88862348	     99.12793858	     38.16827434	      4.94589323	     67.45852640	    123.49247339	    106.49292273
      4.40000000	    -15.53760418	     -6.89543217	      4.82450257	      0.73928900	      0.72712623	      0.41317048	     53.51825240	     12.97948473	     -8.22218812	     70.67809949	      1.23356555	     39.75308870	     -2.50212295	     -7.49999987	     81.73891502	    -12.34198789	     16.36083853	     39.26093568	      0.68523260	      3.63356022	    -20.12145706	     -7.49999987	      1.92264038	      9.93800704	      0.76121797	     38.63003800	     -1.60903556	     60.46876136	    129.73417189	     99.24119840	     38.17783752	      4.73515671	     66.23317003	    123.91083402	    106.26600012
      4.41666670	    -15.41087001	     -6.80783803	      4.81429541	      0.73915819	      0.72939587	      0.41317629	     53.25240671	     12.93228965	     -8.06505363	     70.43225189	      1.22927470	     39.62716177	     -2.45147396	     -7.49999987	     81.50934002	    -12.37420818	     16.30027063	     39.31335823	      0.68614754	      3.79134788	    -19.93008919	     -7.49999987	      1.61106886	      9.76744274	      0.83891953	     39.02825513	     -1.51810178	     59.86021126	    129.89047817	     97.80190672	     38.38031773	      4.09481323	     65.30603366	    123.77694170	    104.84315198
      4.43333330	    -15.51857859	     -6.66240822	      4.89120355	      0.73316918	      0.73043625	      0.41019505	     53.46520267	     12.63819280	     -7.87469702	     70.36708564	      1.22813733	     39.12604720	     -2.81306904	     -7.49999987	     81.61689807	    -12.11348269	     16.13151050	     39.35788159	      0.68692462	      3.82833021	    -19.89716178	     -7.49999987	      1.63258800	      9.76428471	      0.58758397	     39.59338718	     -1.62749505	     59.77935781	    129.93833470	     98.03777872	     38.41342739	      3.92482128	     63.22258034	    123.02699976	    104.85402100
      4.45000000	    -15.52083980	     -6.63294817	      5.00556199	      0.73351491	      0.73764576	      0.41005874	     53.29984938	     12.47128201	     -7.68908634	     69.79606847	      1.21817120	     38.51286086	     -3.22347623	     -7.49999987	     81.35413854	    -11.90738464	     15.93835291	     39.05704595	      0.68167405	      3.75197248	    -19.81559498	     -7.49999987	      1.76278356	      9.99193972	      0.49419539	     40.12398235	     -1.79926356	     59.96415212	    130.02857297	     97.49381007	     37.75698155	      4.01322301	     63.56054528	    124.36489557	    104.25048947
      4.46666670	    -15.18584589	     -6.24344178	      4.97314608	      0.73339883	      0.74800422	      0.40990736	     52.31183719	     12.23929449	     -7.04118162	     68.62831109	      1.19778999	     37.81298578	     -3.80537726	     -7.49999987	     80.02144110	    -11.87615279	     15.21508050	     38.23963614	      0.66740756	      3.55247513	    -19.78920189	     -7.49999987	      1.29458598	      9.84694573	      0.75526314	     39.90557925	     -1.98386841	     59.98700065	    129.48922876	     98.68396772	     36.34562725	      3.50717767	     62.27510031	    124.32866321	    106.10796874
      4.48333330	    -14.70681658	     -5.87501730	      4.80258834	      0.72846695	      0.75269636	      0.40831539	     51.42817973	     12.07492189	     -6.41193047	     67.63851226	      1.18051474	     36.95201027	     -4.38774764	     -7.49999987	     78.66768246	    -12.01804068	     14.48844371	     37.43993692	      0.65345017	      3.33121521	    -19.47841697	     -7.49999987	      0.65430933	      9.70188315	      0.94398644	     40.10752736	     -2.06599322	     60.63824939	    130.23886529	     98.74497256	     36.79858198	      3.57572050	     58.94108953	    122.06345372	    105.93578285
      4.50000000	    -14.00063255	     -5.64874029	      4.67644261	      0.72906278	      0.76047344	      0.40882174	     49.93113149	     12.08066166	     -5.85826127	     66.14052983	      1.15437001	     36.41084611	     -4.21080897	     -7.49999987	     77.06581767	    -12.24160675	     13.99162317	     36.50453129	      0.63712426	      3.28388838	    -19.17802320	     -7.49999987	      0.06544599	      9.67684278	      1.39332964	     40.17522434	     -2.32432357	     60.86874759	    130.83510777	     96.91690032	     36.82058497	      3.39249015	     56.99224100	    120.59208494	    104.12505063
      4.51666670	    -13.36234297	     -5.38849639	      4.55750689	      0.72901016	      0.76790845	      0.40917324	     48.28341690	     11.98199617	     -5.32690520	     64.46231980	      1.12507972	     35.85732928	     -4.09104938	     -7.49999987	     75.53154457	    -12.41665439	     13.60102348	     35.60982618	      0.62150871	      3.35051847	    -19.13196349	     -7.49999987	     -0.49098101	      9.48945261	      2.18340771	     40.39882120	     -2.73106396	     61.04793924	    131.29456418	     95.48284010	     35.88369426	      2.83233281	     55.99316649	    119.97388342	    102.93413352
      4.53333330	    -12.92033700	     -4.94296801	      4.64841101	      0.72850436	      0.77667017	      0.40869662	     46.95717455	     11.64042705	     -4.77681707	     62.92533444	      1.09825427	     34.91444469	     -4.52292263	     -7.49999987	     74.28934922	    -12.27114520	     13.05142673	     34.89841892	      0.60909231	      3.17221510	    -19.16763806	     -7.49999987	     -0.95708500	      9.17627422	      1.90563893	     41.40677807	     -2.49566778	     61.84463687	    130.88586353	     98.68279976	     34.63685147	      1.71289006	     58.11887989	    123.85784111	    105.55961799
      4.55000000	    -12.80206224	     -4.60229892	      4.88177854	      0.72858774	      0.78284622	      0.40821502	     46.11016094	     11.18954259	     -4.53114751	     61.66624230	      1.07627897	     34.28687404	     -4.45998860	     -7.49999987	     73.63982072	    -11.98197704	     12.60849125	     34.32893770	      0.59915299	      2.99453327	    -19.24519591	     -7.49999987	     -0.99338969	      8.86806510	      1.99142391	     41.04209948	     -2.65122381	     62.08039099	    131.17793789	     97.62999947	     34.23761111	      2.69924852	     59.31870853	    124.40354830	    104.74185242
